<svg width="270" height="120" viewBox="0 0 270 120" fill="none" xmlns="http://www.w3.org/2000/svg">
<rect width="270" height="120" rx="4" fill="#F5F4FA"/>
<path d="M169.943 34.8964C169.806 34.4752 169.442 34.1673 169.002 34.103L164.823 33.4952L162.953 29.7081C162.561 28.9101 161.253 28.9101 160.861 29.7081L158.99 33.4952L154.811 34.1032C154.372 34.1673 154.008 34.4742 153.869 34.8966C153.732 35.3189 153.845 35.7832 154.164 36.0925L157.189 39.0407L156.475 43.2035C156.4 43.641 156.58 44.0831 156.938 44.3445C157.301 44.6083 157.775 44.6408 158.168 44.4331L161.906 42.4672L165.644 44.4331C165.815 44.5229 166.002 44.5672 166.188 44.5672C166.429 44.5672 166.671 44.4926 166.874 44.3444C167.233 44.0831 167.413 43.6408 167.337 43.2033L166.623 39.0406L169.648 36.0923C169.965 35.782 170.08 35.3188 169.943 34.8964ZM164.556 37.7992C164.281 38.0663 164.155 38.4536 164.221 38.8317L164.638 41.2689L162.45 40.1185C162.279 40.0287 162.093 39.9844 161.906 39.9844C161.719 39.9844 161.534 40.0287 161.362 40.1185L159.174 41.2689L159.591 38.8317C159.657 38.4536 159.531 38.0675 159.256 37.7992L157.484 36.0725L159.932 35.7166C160.312 35.6618 160.64 35.4227 160.811 35.0784L161.905 32.8618L162.999 35.0784C163.17 35.4225 163.497 35.6618 163.878 35.7166L166.325 36.0725L164.556 37.7992Z" fill="#2196F3"/>
<path d="M157.167 69.8923H154.833V72.2257H157.167V69.8923Z" fill="#2196F3"/>
<path d="M157.167 74.5591H154.833V76.8925H157.167V74.5591Z" fill="#2196F3"/>
<path d="M159.5 72.2257H157.167V74.5591H159.5V72.2257Z" fill="#2196F3"/>
<path d="M154.834 72.2257H152.5V74.5591H154.834V72.2257Z" fill="#2196F3"/>
<path d="M149 82.7258H146.667V85.0592H149V82.7258Z" fill="#2196F3"/>
<path d="M149 87.3926H146.667V89.726H149V87.3926Z" fill="#2196F3"/>
<path d="M151.334 85.0593H149V87.3927H151.334V85.0593Z" fill="#2196F3"/>
<path d="M146.667 85.0593H144.333V87.3927H146.667V85.0593Z" fill="#2196F3"/>
<path d="M135 78.0592H132.667V80.3926H135V78.0592Z" fill="#2196F3"/>
<path d="M135 82.7258H132.667V85.0592H135V82.7258Z" fill="#2196F3"/>
<path d="M137.333 80.3925H135V82.7259H137.333V80.3925Z" fill="#2196F3"/>
<path d="M132.667 80.3925H130.333V82.7259H132.667V80.3925Z" fill="#2196F3"/>
<path d="M112.833 38.3918H110.5V40.7253H112.833V38.3918Z" fill="#2196F3"/>
<path d="M112.833 43.0586H110.5V45.392H112.833V43.0586Z" fill="#2196F3"/>
<path d="M115.166 40.7252H112.833V43.0586H115.166V40.7252Z" fill="#2196F3"/>
<path d="M110.5 40.7252H108.166V43.0586H110.5V40.7252Z" fill="#2196F3"/>
<path d="M154.064 55.9739C153.435 55.1257 152.512 54.5797 151.464 54.4326C150.412 54.2833 149.373 54.5598 148.533 55.2026L145.795 57.3014L145.794 57.3027L141.643 60.4025L138.672 59.2195C143.969 56.843 147.671 51.5451 147.671 45.3943C147.671 37.0315 140.84 30.2274 132.444 30.2274C124.047 30.2274 117.216 37.0315 117.216 45.3943C117.216 48.4254 118.123 51.244 119.666 53.6158L113.62 53.5633C113.617 53.5633 113.613 53.5633 113.61 53.5633C113.591 53.5633 113.576 53.5726 113.559 53.5739C113.443 53.5785 113.33 53.6019 113.219 53.6416C113.191 53.6521 113.162 53.658 113.135 53.6707C113.121 53.6765 113.107 53.6776 113.093 53.6846L106.021 57.1765C106.02 57.1765 106.018 57.1765 106.018 57.1776L101.877 59.1693C101.831 59.1891 101.784 59.2159 101.739 59.2463C100.088 60.3452 99.5257 62.5037 100.43 64.2676C100.912 65.2057 101.732 65.8964 102.74 66.2125C103.129 66.3338 103.525 66.3934 103.919 66.3934C104.553 66.3934 105.181 66.2382 105.756 65.9314L108.792 64.3167L113.744 61.7594L116.712 61.7418L104.808 73.5884C104.807 73.5897 104.806 73.5897 104.805 73.5908L101.876 76.5074C101.185 77.1958 100.804 78.1092 100.804 79.0835C100.804 80.0566 101.185 80.9723 101.876 81.6619C102.587 82.3689 103.521 82.7236 104.456 82.7236C105.392 82.7236 106.325 82.3689 107.038 81.6619L109.913 78.7989L113.721 75.9556L115.691 77.918L111.838 81.7552C111.836 81.7564 111.835 81.7564 111.834 81.7575L108.906 84.6742C108.214 85.3626 107.833 86.276 107.833 87.2503C107.833 88.2233 108.214 89.1391 108.906 89.8287C109.616 90.5357 110.552 90.8903 111.486 90.8903C112.421 90.8903 113.357 90.5357 114.068 89.8287L116.998 86.912L121.684 82.2453C121.685 82.2441 121.685 82.243 121.687 82.2418L123.895 80.0542L123.887 80.046C123.901 80.0321 123.921 80.0273 123.935 80.0123L135.235 67.6349L142.828 68.7153C142.883 68.7235 142.938 68.7269 142.993 68.7269C143.134 68.7269 143.27 68.6931 143.402 68.643C143.441 68.629 143.474 68.6103 143.511 68.5917C143.553 68.5706 143.597 68.559 143.637 68.5322L150.666 63.8655C150.692 63.848 150.706 63.82 150.73 63.8014C150.758 63.7793 150.793 63.77 150.819 63.7454L153.6 61.1401C155.047 59.7841 155.247 57.5628 154.064 55.9739ZM104.66 63.8722C104.281 64.0753 103.851 64.116 103.439 63.9854C103.03 63.8583 102.699 63.5794 102.505 63.2026C102.153 62.5165 102.357 61.6811 102.974 61.2297L105.848 59.8472L106.54 61.869L106.83 62.7183L104.66 63.8722ZM112.31 59.8741L108.923 61.6241L108.365 59.9907L107.963 58.817L112.397 56.6282L112.31 59.8741ZM145.34 45.3919C145.34 47.4009 144.861 49.2957 144.03 50.9908L134.883 46.8363C134.788 45.5821 134.137 44.4843 133.159 43.8005L136.361 33.1686C141.563 34.823 145.34 39.6752 145.34 45.3919ZM119.552 45.3919C119.552 38.316 125.336 32.5584 132.446 32.5584C132.999 32.5584 133.54 32.605 134.076 32.6727L130.943 43.0714C130.901 43.0702 130.862 43.0585 130.819 43.0585C128.56 43.0585 126.722 44.8902 126.722 47.142C126.722 49.3936 128.56 51.2254 130.819 51.2254C132.337 51.2254 133.65 50.3866 134.358 49.1592L142.807 52.9976C140.456 56.1616 136.694 58.2255 132.446 58.2255C125.336 58.2255 119.552 52.4679 119.552 45.3919ZM132.581 47.142C132.581 48.1068 131.79 48.892 130.819 48.892C129.847 48.892 129.056 48.1068 129.056 47.142C129.056 46.1771 129.847 45.3919 130.819 45.3919C131.79 45.3919 132.581 46.1771 132.581 47.142ZM105.392 80.0075C104.875 80.5196 104.038 80.5185 103.523 80.0087C103.274 79.7602 103.138 79.4324 103.138 79.0835C103.138 78.7358 103.274 78.408 103.523 78.1619L105.627 76.0653L107.489 77.9192L105.392 80.0075ZM112.422 88.1744C111.905 88.6865 111.068 88.6878 110.552 88.1756C110.303 87.927 110.167 87.5993 110.167 87.2504C110.167 86.9027 110.303 86.5749 110.552 86.3288L112.658 84.2311L113.539 85.1073L114.521 86.085L112.422 88.1744ZM120.038 80.5862C120.037 80.5873 120.036 80.5873 120.035 80.5886L116.174 84.4386L115.293 83.5624L114.311 82.5847L118.168 78.7451C118.168 78.7451 118.168 78.7451 118.168 78.744C118.169 78.7428 118.17 78.7428 118.172 78.7417C118.259 78.6542 118.314 78.5492 118.368 78.4454C118.383 78.4151 118.412 78.3894 118.425 78.3579C118.461 78.2681 118.467 78.1713 118.481 78.0767C118.488 78.023 118.511 77.9729 118.511 77.918C118.511 77.8398 118.483 77.764 118.467 77.6869C118.453 77.6169 118.453 77.5457 118.426 77.4781C118.382 77.3685 118.306 77.2717 118.227 77.1771C118.204 77.1514 118.196 77.1187 118.172 77.0942C118.172 77.0942 118.172 77.0942 118.17 77.0942C118.169 77.0931 118.169 77.0907 118.168 77.0896L114.653 73.5895C114.616 73.5522 114.568 73.537 114.526 73.5056C114.464 73.4577 114.404 73.4134 114.336 73.3795C114.269 73.3469 114.201 73.327 114.131 73.3083C114.057 73.2872 113.984 73.271 113.906 73.2651C113.835 73.2604 113.769 73.2674 113.697 73.2756C113.619 73.2849 113.546 73.2954 113.47 73.3199C113.396 73.3433 113.331 73.3794 113.264 73.4179C113.22 73.4424 113.171 73.4506 113.131 73.481L109.251 76.3767L107.281 74.4144L112.529 69.1946L122.067 78.576L120.038 80.5862ZM134.954 65.2373C134.921 65.2326 134.889 65.2455 134.855 65.2431C134.77 65.2385 134.689 65.2444 134.603 65.2583C134.537 65.2699 134.474 65.2828 134.411 65.3049C134.336 65.3306 134.269 65.3656 134.2 65.4076C134.134 65.4473 134.075 65.4892 134.018 65.5417C133.99 65.5662 133.956 65.578 133.93 65.6059L123.653 76.8621L114.185 67.5507L120.382 61.386C120.839 60.931 120.841 60.1924 120.386 59.7351C120.156 59.5052 119.854 59.392 119.552 59.3933V59.3922L114.698 59.4213L114.759 55.905L121.549 55.9633C124.317 58.7937 128.176 60.5589 132.446 60.5589C133.403 60.5589 134.336 60.4598 135.245 60.2906C135.332 60.3606 135.419 60.4318 135.528 60.4761L140.8 62.5761L141.133 64.2351L141.523 66.1717L134.954 65.2373ZM143.794 65.6269L143.11 62.219L146.274 59.8565L147.102 60.9554L148.344 62.6051L143.794 65.6269ZM152.005 59.4341L150.173 61.1515L148.136 58.4471L149.954 57.053C150.294 56.7917 150.722 56.6855 151.142 56.7403C151.564 56.7998 151.938 57.0203 152.192 57.3621C152.666 58.0003 152.585 58.8905 152.005 59.4341Z" fill="#212121"/>
<path d="M129.755 65.5651L125.067 60.8984C124.613 60.4447 123.876 60.4447 123.421 60.8984L118.734 65.5651C118.515 65.7857 118.391 66.0819 118.391 66.3923C118.391 66.7026 118.513 67.0002 118.734 67.2195L123.421 71.8861C123.648 72.1124 123.947 72.2256 124.244 72.2256C124.542 72.2256 124.84 72.1124 125.067 71.8861L129.755 67.2195C129.974 67.0002 130.099 66.7026 130.099 66.3923C130.099 66.0819 129.975 65.7844 129.755 65.5651ZM124.244 69.4129L121.211 66.3923L124.244 63.3717L127.279 66.3923L124.244 69.4129Z" fill="#212121"/>
<path d="M137.547 36.0923L136.983 38.358C137.138 38.3966 140.784 39.3462 140.784 43.0586H143.118C143.118 38.6461 139.474 36.5718 137.547 36.0923Z" fill="#212121"/>
<path d="M143.118 45.392H140.784V47.7254H143.118V45.392Z" fill="#212121"/>
</svg>
