<svg width="270" height="120" viewBox="0 0 270 120" fill="none" xmlns="http://www.w3.org/2000/svg">
<rect width="270" height="120" rx="4" fill="#F5F4FA"/>
<g clip-path="url(#clip0_59_5402)">
<path d="M132.65 57.7351H134.982V68.2296H132.65V57.7351Z" fill="#2196F3"/>
<path d="M141.978 62.3993H144.31V68.2296H141.978V62.3993Z" fill="#2196F3"/>
<path d="M123.321 65.8975H125.653V68.2296H123.321V65.8975Z" fill="#2196F3"/>
<path d="M116.325 64.7314H118.657V68.2296H116.325V64.7314Z" fill="#2196F3"/>
<path d="M103.498 86.8865H159.469C161.401 86.8865 162.967 85.3201 162.967 83.3883V78.7241C162.967 76.7922 161.401 75.2259 159.469 75.2259H158.303V46.1468L164.926 39.8724C166.463 40.6302 168.324 40.1702 169.33 38.7815C170.337 37.3934 170.196 35.482 168.997 34.2568C167.798 33.0315 165.89 32.8487 164.48 33.8241C163.07 34.7999 162.569 36.6498 163.293 38.2036L158.303 42.9344V40.2442C158.303 38.3124 156.736 36.746 154.805 36.746H108.162C106.231 36.746 104.664 38.3124 104.664 40.2442V75.2259H103.498C101.566 75.2259 100 76.7922 100 78.7241V83.3883C100 85.3201 101.566 86.8865 103.498 86.8865ZM166.465 35.58C167.109 35.58 167.631 36.1021 167.631 36.746C167.631 37.39 167.109 37.9121 166.465 37.9121C165.821 37.9121 165.299 37.39 165.299 36.746C165.299 36.1021 165.821 35.58 166.465 35.58ZM106.996 40.2442C106.996 39.6003 107.518 39.0781 108.162 39.0781H154.805C155.449 39.0781 155.971 39.6003 155.971 40.2442V45.1413L153.639 47.3573V42.5763C153.639 41.9324 153.116 41.4103 152.473 41.4103H110.495C109.851 41.4103 109.328 41.9324 109.328 42.5763V71.7277C109.328 72.3717 109.851 72.8938 110.495 72.8938H152.473C153.116 72.8938 153.639 72.3717 153.639 71.7277V50.5651L155.971 48.3554V75.2259H106.996V40.2442ZM117.491 55.4029C115.913 55.3984 114.528 56.4494 114.108 57.9702C113.689 59.491 114.338 61.104 115.695 61.909C117.051 62.7141 118.779 62.512 119.913 61.4148L123.966 63.4486C124.437 63.6843 125.008 63.5739 125.358 63.1804L133.974 53.487L142.444 59.8337C142.899 60.1742 143.533 60.1378 143.945 59.7477L151.306 52.7748V70.5617H111.661V43.7424H151.306V49.5618L143.056 57.3746L134.515 50.9716C134.03 50.6083 133.348 50.6766 132.944 51.1293L124.21 60.9571L120.945 59.3241C120.969 59.1841 120.983 59.0429 120.989 58.9011C120.989 56.9693 119.423 55.4029 117.491 55.4029ZM118.657 58.9011C118.657 59.5451 118.135 60.0672 117.491 60.0672C116.847 60.0672 116.325 59.5451 116.325 58.9011C116.325 58.2572 116.847 57.735 117.491 57.735C118.135 57.735 118.657 58.2572 118.657 58.9011ZM125.653 77.558H137.314V78.7241C137.314 79.368 136.792 79.8901 136.148 79.8901H126.819C126.175 79.8901 125.653 79.368 125.653 78.7241V77.558ZM102.332 78.7241C102.332 78.0801 102.854 77.558 103.498 77.558H123.321V78.7241C123.321 80.6559 124.887 82.2222 126.819 82.2222H136.148C138.08 82.2222 139.646 80.6559 139.646 78.7241V77.558H159.469C160.113 77.558 160.635 78.0801 160.635 78.7241V83.3883C160.635 84.0322 160.113 84.5543 159.469 84.5543H103.498C102.854 84.5543 102.332 84.0322 102.332 83.3883V78.7241Z" fill="#212121"/>
</g>
<defs>
<clipPath id="clip0_59_5402">
<rect width="70" height="70" fill="white" transform="translate(100 25)"/>
</clipPath>
</defs>
</svg>
